<mxfile host="app.diagrams.net" modified="2023-04-19T21:39:25.944Z" agent="Mozilla/5.0 (Windows NT 10.0; Win64; x64) AppleWebKit/537.36 (KHTML, like Gecko) Chrome/112.0.0.0 Safari/537.36" etag="gqmu4uzeV7Fho1retHD0" version="21.2.1" type="github">
  <diagram name="Page-1" id="c7558073-3199-34d8-9f00-42111426c3f3">
    <mxGraphModel dx="1434" dy="707" grid="1" gridSize="10" guides="1" tooltips="1" connect="1" arrows="1" fold="1" page="1" pageScale="1" pageWidth="826" pageHeight="1169" background="none" math="0" shadow="0">
      <root>
        <mxCell id="0" />
        <mxCell id="1" parent="0" />
        <mxCell id="q9RcElau2b4ymmq7PIII-96" value="Production" style="rounded=1;whiteSpace=wrap;html=1;" parent="1" vertex="1">
          <mxGeometry x="580" y="170" width="120" height="60" as="geometry" />
        </mxCell>
        <mxCell id="q9RcElau2b4ymmq7PIII-110" style="edgeStyle=orthogonalEdgeStyle;rounded=0;orthogonalLoop=1;jettySize=auto;html=1;entryX=0;entryY=0.5;entryDx=0;entryDy=0;" parent="1" source="q9RcElau2b4ymmq7PIII-97" target="q9RcElau2b4ymmq7PIII-96" edge="1">
          <mxGeometry relative="1" as="geometry" />
        </mxCell>
        <mxCell id="q9RcElau2b4ymmq7PIII-97" value="UAT&lt;br&gt;Full Sandbox&lt;br&gt;Bundle" style="rounded=1;whiteSpace=wrap;html=1;" parent="1" vertex="1">
          <mxGeometry x="430" y="170" width="120" height="60" as="geometry" />
        </mxCell>
        <mxCell id="q9RcElau2b4ymmq7PIII-107" style="edgeStyle=orthogonalEdgeStyle;rounded=0;orthogonalLoop=1;jettySize=auto;html=1;entryX=0.294;entryY=0.983;entryDx=0;entryDy=0;entryPerimeter=0;" parent="1" source="q9RcElau2b4ymmq7PIII-98" target="q9RcElau2b4ymmq7PIII-101" edge="1">
          <mxGeometry relative="1" as="geometry" />
        </mxCell>
        <mxCell id="q9RcElau2b4ymmq7PIII-98" value="Dev3&lt;br&gt;Developer Pro" style="rounded=1;whiteSpace=wrap;html=1;" parent="1" vertex="1">
          <mxGeometry x="100" y="210" width="120" height="60" as="geometry" />
        </mxCell>
        <mxCell id="q9RcElau2b4ymmq7PIII-105" style="edgeStyle=orthogonalEdgeStyle;rounded=0;orthogonalLoop=1;jettySize=auto;html=1;entryX=0;entryY=0.5;entryDx=0;entryDy=0;" parent="1" source="q9RcElau2b4ymmq7PIII-99" target="q9RcElau2b4ymmq7PIII-101" edge="1">
          <mxGeometry relative="1" as="geometry" />
        </mxCell>
        <mxCell id="q9RcElau2b4ymmq7PIII-99" value="Dev2&lt;br&gt;Developer Pro" style="rounded=1;whiteSpace=wrap;html=1;" parent="1" vertex="1">
          <mxGeometry x="100" y="130" width="120" height="60" as="geometry" />
        </mxCell>
        <mxCell id="q9RcElau2b4ymmq7PIII-106" style="edgeStyle=orthogonalEdgeStyle;rounded=0;orthogonalLoop=1;jettySize=auto;html=1;" parent="1" source="q9RcElau2b4ymmq7PIII-100" target="q9RcElau2b4ymmq7PIII-101" edge="1">
          <mxGeometry relative="1" as="geometry" />
        </mxCell>
        <mxCell id="q9RcElau2b4ymmq7PIII-100" value="Dev1&lt;br&gt;Developer Pro&lt;br&gt;Work Item" style="rounded=1;whiteSpace=wrap;html=1;" parent="1" vertex="1">
          <mxGeometry x="100" y="50" width="120" height="60" as="geometry" />
        </mxCell>
        <mxCell id="q9RcElau2b4ymmq7PIII-109" style="edgeStyle=orthogonalEdgeStyle;rounded=0;orthogonalLoop=1;jettySize=auto;html=1;entryX=0;entryY=0.5;entryDx=0;entryDy=0;" parent="1" source="q9RcElau2b4ymmq7PIII-101" target="q9RcElau2b4ymmq7PIII-97" edge="1">
          <mxGeometry relative="1" as="geometry" />
        </mxCell>
        <mxCell id="q9RcElau2b4ymmq7PIII-101" value="Staging (optional)&lt;br&gt;Developer Pro&lt;br&gt;Bundle" style="rounded=1;whiteSpace=wrap;html=1;fillColor=#FFE6CC;" parent="1" vertex="1">
          <mxGeometry x="280" y="170" width="120" height="60" as="geometry" />
        </mxCell>
        <mxCell id="q9RcElau2b4ymmq7PIII-108" style="edgeStyle=orthogonalEdgeStyle;rounded=0;orthogonalLoop=1;jettySize=auto;html=1;entryX=0.75;entryY=1;entryDx=0;entryDy=0;" parent="1" source="q9RcElau2b4ymmq7PIII-102" target="q9RcElau2b4ymmq7PIII-101" edge="1">
          <mxGeometry relative="1" as="geometry" />
        </mxCell>
        <mxCell id="q9RcElau2b4ymmq7PIII-102" value="Dev4&lt;br&gt;Developer&amp;nbsp;" style="rounded=1;whiteSpace=wrap;html=1;" parent="1" vertex="1">
          <mxGeometry x="100" y="290" width="120" height="60" as="geometry" />
        </mxCell>
        <mxCell id="q9RcElau2b4ymmq7PIII-111" value="Considerations" style="swimlane;fontStyle=0;childLayout=stackLayout;horizontal=1;startSize=30;horizontalStack=0;resizeParent=1;resizeParentMax=0;resizeLast=0;collapsible=1;marginBottom=0;whiteSpace=wrap;html=1;fillColor=#D4D4D4;" parent="1" vertex="1">
          <mxGeometry x="50" y="540" width="330" height="120" as="geometry" />
        </mxCell>
        <mxCell id="q9RcElau2b4ymmq7PIII-112" value="1. How to make sure the Developer Sandboxes have all the metadata?" style="text;strokeColor=none;fillColor=none;align=left;verticalAlign=middle;spacingLeft=4;spacingRight=4;overflow=hidden;points=[[0,0.5],[1,0.5]];portConstraint=eastwest;rotatable=0;whiteSpace=wrap;html=1;" parent="q9RcElau2b4ymmq7PIII-111" vertex="1">
          <mxGeometry y="30" width="330" height="30" as="geometry" />
        </mxCell>
        <mxCell id="q9RcElau2b4ymmq7PIII-113" value="2. How to seed sample data to the developer boxes?" style="text;strokeColor=none;fillColor=none;align=left;verticalAlign=middle;spacingLeft=4;spacingRight=4;overflow=hidden;points=[[0,0.5],[1,0.5]];portConstraint=eastwest;rotatable=0;whiteSpace=wrap;html=1;" parent="q9RcElau2b4ymmq7PIII-111" vertex="1">
          <mxGeometry y="60" width="330" height="30" as="geometry" />
        </mxCell>
        <mxCell id="q9RcElau2b4ymmq7PIII-114" value="3." style="text;strokeColor=none;fillColor=none;align=left;verticalAlign=middle;spacingLeft=4;spacingRight=4;overflow=hidden;points=[[0,0.5],[1,0.5]];portConstraint=eastwest;rotatable=0;whiteSpace=wrap;html=1;" parent="q9RcElau2b4ymmq7PIII-111" vertex="1">
          <mxGeometry y="90" width="330" height="30" as="geometry" />
        </mxCell>
        <mxCell id="lpJZivtzPTiq8uPtPQIb-1" value="&lt;h1&gt;Full Pipeline&lt;/h1&gt;" style="text;html=1;strokeColor=none;fillColor=none;spacing=5;spacingTop=-20;whiteSpace=wrap;overflow=hidden;rounded=0;" vertex="1" parent="1">
          <mxGeometry x="390" y="10" width="170" height="50" as="geometry" />
        </mxCell>
        <mxCell id="lpJZivtzPTiq8uPtPQIb-2" value="&lt;h1&gt;Quick Pipeline&lt;/h1&gt;" style="text;html=1;strokeColor=none;fillColor=none;spacing=5;spacingTop=-20;whiteSpace=wrap;overflow=hidden;rounded=0;" vertex="1" parent="1">
          <mxGeometry x="390" y="350" width="200" height="50" as="geometry" />
        </mxCell>
        <mxCell id="lpJZivtzPTiq8uPtPQIb-5" value="Production" style="rounded=1;whiteSpace=wrap;html=1;" vertex="1" parent="1">
          <mxGeometry x="520" y="430" width="120" height="60" as="geometry" />
        </mxCell>
        <mxCell id="lpJZivtzPTiq8uPtPQIb-7" style="edgeStyle=orthogonalEdgeStyle;rounded=0;orthogonalLoop=1;jettySize=auto;html=1;entryX=0;entryY=0.5;entryDx=0;entryDy=0;" edge="1" parent="1" source="lpJZivtzPTiq8uPtPQIb-6" target="lpJZivtzPTiq8uPtPQIb-5">
          <mxGeometry relative="1" as="geometry" />
        </mxCell>
        <mxCell id="lpJZivtzPTiq8uPtPQIb-6" value="UAT&lt;br&gt;Full Sandbox&lt;br&gt;Work Item" style="rounded=1;whiteSpace=wrap;html=1;" vertex="1" parent="1">
          <mxGeometry x="350" y="430" width="100" height="60" as="geometry" />
        </mxCell>
      </root>
    </mxGraphModel>
  </diagram>
</mxfile>
